<svg xmlns="http://www.w3.org/2000/svg" width="30" height="30" viewBox="0 0 30 30" fill="none"><rect width="30" height="30" fill="#1E1E1E"></rect><rect id="Rectangle 23" x="-102" y="-177" width="1340" height="388" fill="white"></rect><g id="Group 21291"><g id="Group 21260"><g id="Group 29"><path id="Vector" d="M14.81 29.62C6.63 29.62 0 22.99 0 14.81C0 6.63001 6.63 0 14.81 0C22.99 0 29.62 6.63001 29.62 14.81C29.62 22.99 22.99 29.62 14.81 29.62Z" fill="#0F89CB"></path><path id="Vector_2" d="M21 16.72C22.34 16.72 23.24 18.08 22.74 19.31C21.55 22.23 18.41 24.32 14.72 24.32C11.03 24.32 7.89003 22.23 6.70003 19.31C6.20003 18.07 7.10003 16.72 8.44003 16.72H21.01H21Z" fill="#3B3735"></path><path id="Vector_3" d="M4.42 11.89C4.42 11.89 4.4 11.84 4.4 11.81C4.11 10.16 7.25 9.73999 8.27 10.06C8.79 10.22 9.31 10.51 9.73 10.86C9.89 11 10.92 12.28 10.18 12.3C10.07 12.3 9.97 12.24 9.88 12.18C9.2 11.7 8.84 11 7.99 10.79C7.06 10.57 6.03 10.87 5.38 11.58C5.17 11.8 4.64999 12.44 4.42999 11.9" fill="#3B3735"></path><path id="Vector_4" d="M25.21 11.89C25.21 11.89 25.2299 11.84 25.2299 11.81C25.5199 10.16 22.3799 9.73999 21.3599 10.06C20.8399 10.22 20.3199 10.51 19.8999 10.86C19.7399 11 18.71 12.28 19.45 12.3C19.56 12.3 19.66 12.24 19.75 12.18C20.43 11.7 20.79 11 21.64 10.79C22.57 10.57 23.6 10.87 24.25 11.58C24.46 11.8 24.98 12.44 25.2 11.9" fill="#3B3735"></path></g></g></g></svg>