<svg xmlns="http://www.w3.org/2000/svg" width="30" height="30" viewBox="0 0 30 30" fill="none"><rect width="30" height="30" fill="#1E1E1E"></rect><rect x="-962" y="-176" width="1340" height="388" fill="white"></rect><path d="M14.81 29.86C6.63 29.86 0 23.23 0 15.05C0 6.86999 6.63 0.23999 14.81 0.23999C22.99 0.23999 29.62 6.86999 29.62 15.05C29.62 23.23 22.99 29.86 14.81 29.86Z" fill="#0F89CB"></path><path d="M22.3 9.38989H19C17.62 9.38989 16.51 10.4899 16.47 11.8499H14C13.96 10.4799 12.84 9.38989 11.47 9.38989H8.16998C6.76998 9.38989 5.63998 10.5299 5.63998 11.9299V13.7499C5.63998 15.1499 6.77998 16.2899 8.16998 16.2899H11.47C12.87 16.2899 14 15.1599 14 13.7499V13.0899H16.46V13.7499C16.46 15.1499 17.6 16.2899 18.99 16.2899H22.29C23.69 16.2899 24.82 15.1599 24.82 13.7499V11.9299C24.82 10.5299 23.68 9.38989 22.29 9.38989" fill="#3B3735"></path><path d="M6.27 10.0899L5.97 9.99989C5.76 9.92989 5.53 10.0399 5.44 10.2399L5.14 10.9399C5.04 11.1699 5.15 11.4299 5.38 11.5099L5.69 11.6299C5.91 11.7199 6.16 11.6099 6.25 11.3899L6.54001 10.6599C6.63001 10.4299 6.51 10.1599 6.27 10.0799" fill="#3B3735"></path><path d="M24.32 10.0899L24.62 9.99989C24.83 9.92989 25.06 10.0399 25.15 10.2399L25.45 10.9399C25.55 11.1699 25.44 11.4299 25.21 11.5099L24.9 11.6299C24.68 11.7199 24.43 11.6099 24.34 11.3899L24.05 10.6599C23.96 10.4299 24.08 10.1599 24.32 10.0799" fill="#3B3735"></path><path d="M5.44 10.24L0 7.22998V8.50998L5.14 10.95L5.44 10.24Z" fill="#3B3735"></path><path d="M25.03 10.2399L29.61 7.3999V8.6699L25.33 10.9499L25.03 10.2399Z" fill="#3B3735"></path><path d="M12.05 20.8299C12.52 20.8299 13 20.8599 13.46 20.8699C15.11 20.8999 16.76 20.8599 18.39 20.5999C19.27 20.4599 20.33 20.3199 21.11 19.8699C21.61 19.5799 22.03 19.1899 22.5 18.8599C22.76 18.6699 23.33 18.1999 23.67 18.4399C23.78 18.5199 23.78 18.6799 23.75 18.8199C23.53 19.9899 22.75 20.9899 21.91 21.7999C21.15 22.5399 20.28 23.1599 19.25 23.4699C18.04 23.8399 16.74 23.9799 15.48 23.9899C14.12 23.9999 12.6 23.9899 11.36 23.3399C11.06 23.1799 10.78 22.9899 10.53 22.7599C10.31 22.5499 10.15 22.2499 10.08 21.9599C10.02 21.6999 10.05 21.4099 10.22 21.1999C10.4 20.9799 10.69 20.8899 10.98 20.8699C11.33 20.8399 11.69 20.8399 12.04 20.8399" fill="#3B3735"></path></svg>