<svg xmlns="http://www.w3.org/2000/svg" width="30" height="30" viewBox="0 0 30 30" fill="none"><rect width="30" height="30" fill="#1E1E1E"></rect><rect x="-532" y="-177" width="1340" height="388" fill="white"></rect><path d="M14.81 29.62C6.63 29.62 0 22.99 0 14.81C0 6.63 6.63 0 14.81 0C22.99 0 29.62 6.63 29.62 14.81C29.62 22.99 22.99 29.62 14.81 29.62Z" fill="#0F89CB"></path><path d="M18.63 18.02C19.65 18.02 20.31 19.1 19.86 20.01C19 21.74 17.06 22.94 14.81 22.94C12.56 22.94 10.62 21.74 9.75998 20.01C9.29998 19.09 9.96998 18.02 10.99 18.02H18.64H18.63Z" fill="#3B3735"></path><path d="M6.96 13.9199C6.8 13.7899 6.64 13.6399 6.49 13.4899C5.85 12.8399 5.07999 11.7799 5.39999 10.8099C5.63999 10.0699 6.51 9.84993 7.21 9.88993C7.59 9.91993 7.96 10.0299 8.31 10.1899C8.43 10.2499 8.58999 10.3199 8.71999 10.4099C8.84999 10.4899 9.02 10.4099 9.03 10.2499C9.06 9.60993 9.28999 8.93993 9.86999 8.62993C10.5 8.28993 11.19 8.51993 11.65 9.01993C12.39 9.82993 12.32 10.9399 12.01 11.9199C11.79 12.6099 11.52 13.2799 11.19 13.9099C11.01 14.2599 10.85 14.6399 10.59 14.9399C10.13 15.4599 9.46 15.3299 8.89 15.0799C8.21 14.7799 7.54 14.3899 6.96 13.9099" fill="#3B3735"></path><path d="M22.66 13.9199C22.82 13.7899 22.98 13.6399 23.13 13.4899C23.77 12.8399 24.54 11.7799 24.22 10.8099C23.98 10.0699 23.11 9.84993 22.41 9.88993C22.03 9.91993 21.66 10.0299 21.31 10.1899C21.19 10.2499 21.03 10.3199 20.9 10.4099C20.77 10.4899 20.6 10.4099 20.59 10.2499C20.56 9.60993 20.33 8.93993 19.75 8.62993C19.12 8.28993 18.43 8.51993 17.97 9.01993C17.23 9.82993 17.3 10.9399 17.61 11.9199C17.83 12.6099 18.1 13.2799 18.43 13.9099C18.61 14.2599 18.77 14.6399 19.03 14.9399C19.49 15.4599 20.16 15.3299 20.73 15.0799C21.41 14.7799 22.08 14.3899 22.66 13.9099" fill="#3B3735"></path></svg>